<svg width="32" height="32" viewBox="0 0 32 32" fill="none" xmlns="http://www.w3.org/2000/svg">
    <!-- Background circle -->
    <circle cx="16" cy="16" r="16" fill="#3B82F6"/>
    
    <!-- Globe outline -->
    <circle cx="16" cy="16" r="10" stroke="white" stroke-width="1.5" fill="none"/>
    
    <!-- Longitude lines -->
    <path d="M16 6 C19 10, 19 22, 16 26" stroke="white" stroke-width="1" fill="none"/>
    <path d="M16 6 C13 10, 13 22, 16 26" stroke="white" stroke-width="1" fill="none"/>
    
    <!-- Latitude lines -->
    <path d="M6 16 C10 13, 22 13, 26 16" stroke="white" stroke-width="1" fill="none"/>
    <path d="M6 16 C10 19, 22 19, 26 16" stroke="white" stroke-width="1" fill="none"/>
    
    <!-- Travel path dots -->
    <circle cx="12" cy="12" r="1.5" fill="#60A5FA"/>
    <circle cx="20" cy="14" r="1.5" fill="#60A5FA"/>
    <circle cx="14" cy="20" r="1.5" fill="#60A5FA"/>
    <circle cx="19" cy="19" r="1.5" fill="#60A5FA"/>
    
    <!-- Connected path -->
    <path d="M12 12 L20 14 L19 19 L14 20" stroke="#60A5FA" stroke-width="1" fill="none" opacity="0.7"/>
    
    <!-- Center pin -->
    <circle cx="16" cy="16" r="2" fill="white"/>
    <circle cx="16" cy="16" r="1" fill="#3B82F6"/>
</svg>
