<svg xmlns="http://www.w3.org/2000/svg" viewBox="0 0 640 180" width="640" height="180">
  <!-- Background -->
  <rect width="640" height="180" fill="none" />
  
  <!-- Main Text -->
  <g fill="#5E35B1">
    <path d="M45.7,82.2c0-19.5,14.2-34.7,35.1-34.7S116,62.7,116,82.2s-14.2,34.6-35.2,34.6S45.7,101.6,45.7,82.2z M97.3,82.2c0-11.3-6.8-18.9-16.5-18.9s-16.4,7.6-16.4,18.9s6.8,18.8,16.4,18.8S97.3,93.5,97.3,82.2z"/>
    <path d="M134.7,49.2h18.4v48.9c0,5.5,2.6,8.3,7.5,8.3c5.1,0,9.6-2.3,12.5-7.3V49.2h18.4v66h-17.6l-0.5-7.3c-5.1,6-11.7,8.9-18.9,8.9c-12.5,0-19.8-8.6-19.8-22.8V49.2z"/>
    <path d="M205.6,82.2c0-19.5,14.2-34.7,35.2-34.7c20.9,0,35.1,15.2,35.1,34.7s-14.2,34.6-35.1,34.6C219.8,116.8,205.6,101.6,205.6,82.2z M257.2,82.2c0-11.3-6.8-18.9-16.4-18.9s-16.5,7.6-16.5,18.9s6.8,18.8,16.5,18.8S257.2,93.5,257.2,82.2z"/>
    <path d="M288.5,49.2h17.2l0.5,7.9c5.5-6.1,12.4-9.6,19.9-9.6c13.3,0,21.4,8.3,21.4,23v44.6h-18.4V75.9c0-7.2-3.3-10-9.3-10c-4.2,0-8.3,2.1-11.2,5.6v43.6h-20.1V49.2z"/>
    <path d="M359.2,49.2h17.2l0.5,7.3c5.2-6,11.7-8.9,18.9-8.9c12.5,0,19.8,8.6,19.8,22.8v44.7H397V74.4c0-5.5-2.6-8.3-7.5-8.3c-5.1,0-9.6,2.3-12.5,7.3v41.7h-17.8V49.2z"/>
    <path d="M434.1,104.1v-40h-8.3V49.2h8.3V32h18.3v17.2h14.6v14.9h-14.6v36.3c0,4.2,2.3,6.3,6.2,6.3c2.8,0,5.2-0.4,7.5-1.4l4.2,13.3c-4.7,2.1-9.9,3.5-16.2,3.5C441.5,122.1,434.1,116.2,434.1,104.1z"/>
    <path d="M480.1,49.2h17.3l0.7,11.9c3.6-8.3,10.1-12.7,18.8-12.7c2.5,0,4.7,0.4,6.3,1l-2.3,17.8c-2.3-0.8-4.9-1.3-7.8-1.3c-7.5,0-12.9,3.7-14.9,10.5v38.6h-18.1V49.2z"/>
    <path d="M526.9,49.2h18.3v66h-18.3V49.2z M526.9,38.5h18.3v13.8h-18.3V38.5z"/>
  </g>
  
  <!-- Plate illustration -->
  <circle cx="580" cy="82" r="40" fill="#FFF0E1" stroke="#5E35B1" stroke-width="3" />
  <path d="M560,82 a20,20 0 1,0 40,0 a20,20 0 1,0 -40,0" fill="none" stroke="#5E35B1" stroke-width="2" />
  
  <!-- Food on plate -->
  <circle cx="570" cy="75" r="8" fill="#FF9800" />
  <circle cx="585" cy="90" r="10" fill="#4CAF50" />
  <circle cx="590" cy="75" r="6" fill="#F44336" />
  
  <!-- Tagline -->
  <text x="320" y="140" font-family="Arial, sans-serif" font-size="14" fill="#5E35B1" text-anchor="middle">DISCOVER AUTHENTIC AFRICAN CUISINE</text>
</svg>